<svg version="1.1" xmlns="http://www.w3.org/2000/svg" xmlns:xlink="http://www.w3.org/1999/xlink" width="250px" height="250px" viewBox="0,0,256,256"><g fill="#1e293b" fill-rule="nonzero" stroke="none" stroke-width="1" stroke-linecap="butt" stroke-linejoin="miter" stroke-miterlimit="10" stroke-dasharray="" stroke-dashoffset="0" font-family="none" font-weight="none" font-size="none" text-anchor="none" style="mix-blend-mode: normal"><g transform="scale(5.12,5.12)"><g><path d="M46,0h-24c-2.243,0 -4,1.757 -4,4v16c0,2.243 1.757,4 4,4h15.624l7.718,6.753c0.185,0.162 0.421,0.247 0.658,0.247c0.14,0 0.281,-0.029 0.413,-0.09c0.358,-0.162 0.587,-0.517 0.587,-0.91v-6.121c1.744,-0.433 3,-1.982 3,-3.879v-16c0,-2.243 -1.757,-4 -4,-4zM35.7,17.6l-0.601,-3h-2.199l-0.601,3h-1.8l2.501,-11.5h2.1l2.4,11.5z"></path><path d="M34.1,8h-0.1c-0.1,0.8 -0.3,1.9 -0.4,2.6l-0.5,2.6h1.9l-0.5,-2.6c-0.2,-0.7 -0.3,-1.8 -0.4,-2.6z"></path></g><g><path d="M15.5,26.5c-1.2,0 -1.6,2.1 -1.6,4.2c0,2.399 0.4,4.399 1.6,4.399c1.1,0 1.5,-2 1.5,-4.399c0,-2.2 -0.4,-4.2 -1.5,-4.2z"></path><path d="M22,26c-3.364,0 -6,-2.636 -6,-6v-1h-12c-2.243,0 -4,1.757 -4,4v16c0,1.896 1.256,3.445 3,3.879v6.121c0,0.393 0.229,0.748 0.587,0.91c0.132,0.061 0.273,0.09 0.413,0.09c0.238,0 0.473,-0.085 0.659,-0.247l7.717,-6.753h15.624c2.243,0 4,-1.757 4,-4v-13zM18.7,38.3c-0.9,-0.399 -2.1,-1 -2.8,-1.399c-0.2,-0.101 -0.4,-0.2 -0.5,-0.2c-2.1,0 -3.4,-2 -3.4,-5.9c0,-3.399 1.3,-5.8 3.6,-5.8c2.4,0 3.3,2.6 3.3,5.7c0,3 -0.7,4.7 -1.8,5.3v0.1c0.7,0.301 1.5,0.601 2.2,0.801z"></path></g></g></g></svg>