<svg xmlns="http://www.w3.org/2000/svg"  viewBox="0 0 480.018 480.018" width="60px" height="60px"><path fill="#d1e7ff" d="M407.127,152.341c-62.51-131.09-271.63-131.15-334.16,0c-31.52,66.09-7.4,129.3,6.56,156.66	c4.21,8.24,13.59,12.25,22.43,9.92c0.492,1.488,2.328,38.364,31.6,73.82c6.49,7.86,17.16,10.31,26.21,6.78	c16.06,31.74,36.1,54.49,68.61,69.86c7.38,3.49,15.96,3.49,23.34,0c32.51-15.37,52.55-38.12,68.61-69.86	c9.05,3.53,19.72,1.08,26.21-6.78c29.632-35.893,30.934-71.806,31.6-73.82c8.84,2.33,18.22-1.68,22.43-9.92	C414.527,281.641,438.647,218.431,407.127,152.341z"/><path fill="#e8f3ff" d="M223.988,467.222c-29.948-15.314-48.896-37.415-64.221-67.701c2.12-0.82,4.14-1.97,6.01-3.45	c4.71-3.75,9.28-7.7,13.7-11.86c14.188,27.09,31.224,48.174,55.528,64.089C246.706,455.962,235.798,473.262,223.988,467.222z"/><path fill="#e8f3ff" d="M328.205,383.334c8.828,6.829,0.361,20.66-9.56,15.549c-1.492-0.769-2.937-1.711-4.327-2.811	c-16.87-13.42-31.94-29.43-44.55-47.76c4.82-3.92,9.44-8.13,13.86-12.64C296.681,354.593,313.092,371.643,328.205,383.334z"/><path fill="#b9dcff" d="M320.327,399.521c-1.193,2.362-2.409,4.673-3.651,6.935c-2.348,4.277-7.979,5.485-11.846,2.511	c-10.957-8.425-24.626-21.47-36.151-35.516c-1.289-1.571-3.534-1.927-5.246-0.831c-6.909,4.424-13.605,7.561-23.386,7.561	c-7.15,0-14.3-1.95-20.67-5.86c-0.907-0.557-1.811-1.125-2.711-1.703c-1.719-1.103-3.977-0.731-5.272,0.848	c-10.595,12.92-22.534,24.688-35.657,35.124c-4.579,3.632-10.086,1.932-12.322-2.14c-1.241-2.26-2.456-4.569-3.648-6.93	c2.12-0.82,4.14-1.97,6.01-3.45c17.095-13.595,32.109-29.672,44.55-47.76c5.775,4.692,11.366,8.626,17.42,12.37	c7.56,4.64,17.04,4.64,24.6,0c6.064-3.75,11.651-7.683,17.42-12.37c12.047,17.516,26.391,33.236,44.55,47.76	C316.188,397.551,318.207,398.701,320.327,399.521z"/><path fill="#e8f3ff" d="M199.714,57.908c23.915-4.703,33.522,29.846,10.603,38.137	C124.856,126.96,75.664,213.33,107.17,309.267c1.349,4.106-0.986,8.545-5.167,9.642c-9.09,2.385-18.345-1.82-22.476-9.908	C21.418,195.114,83.956,80.671,199.714,57.908z"/><path fill="#e8f3ff" d="M251.989,350.512c3.917,2.027,4.452,7.652,0.359,10.169c-7.556,4.646-17.04,4.64-24.6,0	c-28.312-17.409-49.87-42.798-65.15-72.31c6.42-4.61,12.56-9.55,18.4-14.81c16.547,31.12,39.579,57.708,69.36,76.03	C250.893,349.919,251.437,350.227,251.989,350.512z"/><path fill="#b9dcff" d="M317.497,288.371c-1.109,2.142-2.245,4.25-3.408,6.326c-2.374,4.235-7.952,5.339-11.823,2.408	c-21.005-15.902-42.346-38.957-58.805-65.921c-1.564-2.563-5.263-2.563-6.828,0c-16.441,26.927-37.77,49.997-58.804,65.921	c-3.871,2.931-9.45,1.827-11.824-2.408c-1.164-2.076-2.3-4.184-3.408-6.326c29.97-21.546,53.85-50.273,70.295-83.542	c2.926-5.921,11.384-5.92,14.31,0C263.647,238.101,287.527,266.834,317.497,288.371z"/><path fill="#e8f3ff" d="M159.845,388.183c3.655,4.403,1.563,11.18-4.031,12.382c-8.828,1.895-17.163-1.655-22.256-7.823	c-29.632-35.893-30.934-71.806-31.6-73.82c2.092-0.537,11.969-3.927,21.64-8.23C128.853,339.417,141.471,366.047,159.845,388.183z"/><path fill="#b9dcff" d="M378.137,318.921c-0.192,1.321-0.43,3.596-0.966,6.858c-0.809,4.922-5.895,7.884-10.594,6.211	c-9.72-3.462-25.067-9.929-40.33-18.85c-1.831-1.07-4.195-0.516-5.345,1.266c-10.608,16.447-22.923,30.557-35.032,41.272	c-3.532,3.126-8.966,2.511-11.768-1.283c-1.475-1.997-2.921-4.024-4.334-6.084c20.34-16.557,36.052-37.377,47.73-59.94	c18.132,13.035,38.084,23.169,59.48,30.21C377.367,318.711,377.747,318.821,378.137,318.921z"/><path fill="#b9dcff" d="M210.327,348.311c-1.404,2.041-2.837,4.054-4.301,6.037c-2.808,3.806-8.261,4.405-11.799,1.265	c-13.209-11.724-24.929-25.514-35.031-41.198c-1.153-1.789-3.525-2.341-5.364-1.268c-14.947,8.724-30.43,15.314-40.331,18.851	c-4.713,1.683-9.777-1.348-10.58-6.288c-0.501-3.081-0.756-5.35-0.965-6.788c0.39-0.1,0.77-0.21,1.16-0.34	c19.566-6.353,40.471-16.524,59.48-30.21C174.227,310.914,190.235,332.013,210.327,348.311z"/><path fill="#2e58ff" d="M247.962,46.145c3.623-17.337,16.42-28.159,32.122-30.211c4.381-0.573,7.468-4.589,6.896-8.97 c-0.573-4.382-4.598-7.469-8.97-6.896c-23.304,3.046-42.25,20.053-46.283,46.092C92.536,51.297,5.645,181.845,72.405,312.637 c4.544,8.902,13.268,14.333,22.74,14.905c4.363,25.724,15.407,49.891,32.237,70.293c10.687,12.956,30.139,15.017,43.371,4.495 c8.321-6.617,16.247-13.878,23.558-21.58c3.041-3.205,2.909-8.269-0.295-11.311c-3.205-3.041-8.268-2.908-11.311,0.295 c-6.799,7.164-14.171,13.918-21.911,20.072c-6.423,5.108-15.876,4.142-21.069-2.153c-15.149-18.364-25.052-40.125-28.891-63.272 c17.438-6.201,33.843-14.381,49.006-24.376c16.444,28.898,37.837,51.589,63.717,67.488c10.174,6.249,22.808,6.248,32.98,0 c3.948-2.426,7.796-5.03,11.551-7.789c12.57,16.916,27.764,32.179,41.588,42.87c-15.821,28.824-34.488,46.86-61.375,59.577 c-5.246,2.482-11.263,2.479-16.507,0.001c-17.362-8.212-31.528-18.963-43.31-32.867c-2.854-3.37-7.902-3.788-11.275-0.932 c-3.371,2.856-3.788,7.904-0.932,11.275c13.286,15.681,29.208,27.779,48.676,36.987c9.596,4.537,20.594,4.536,30.188-0.001 c30.235-14.3,51.833-35.373,69.38-67.858c11.152,1.491,21.619-2.956,28.189-10.921c7.677-9.306,14.21-19.459,19.418-30.178 c1.932-3.974,0.275-8.761-3.699-10.691c-3.975-1.934-8.761-0.274-10.691,3.699c-4.655,9.579-10.499,18.659-17.37,26.988 c-5.193,6.297-14.645,7.264-21.068,2.153c-14.648-11.648-27.657-25.142-38.758-40.177c8.772-7.79,16.902-16.56,24.309-26.264 c2.681-3.513,2.007-8.532-1.506-11.213c-3.513-2.682-8.533-2.006-11.213,1.506c-12.574,16.476-27.367,30.001-43.97,40.201 c-5.006,3.074-11.227,3.074-16.23,0c-23.968-14.725-43.788-35.961-58.996-63.176c19.586-15.023,36.763-33.308,50.991-54.462 c2.467-3.666,1.493-8.637-2.173-11.103c-3.665-2.467-8.636-1.493-11.104,2.173c-14.421,21.441-32.093,39.714-52.367,54.344 c-3.769,2.408-21.469,17.423-57.672,29.341c-5.502,1.811-11.37-0.55-13.956-5.615c-12.094-23.691-36.935-85.692-6.47-149.582 c59.617-125.02,260.046-125.145,319.723,0c30.465,63.89,5.624,125.891-6.471,149.583c-2.584,5.065-8.46,7.425-13.955,5.615 c-60.407-19.886-107.295-64.304-132.025-125.07c-1.665-4.093-6.331-6.059-10.426-4.395c-4.093,1.666-6.06,6.333-4.395,10.426 c26.164,64.289,76.804,112.826,141.843,134.236c13.017,4.287,27.001-1.375,33.209-13.538 C473.923,182.884,388.706,51.098,247.962,46.145z"/></svg>